<svg width="16" height="17" viewBox="0 0 16 17" fill="none" xmlns="http://www.w3.org/2000/svg">
<path d="M14.1668 14.3333V14.6666H1.8335V14.3333H14.1668ZM3.16683 8.99992H3.50016V12.6666H3.16683V8.99992ZM6.50016 8.99992H6.8335V12.6666H6.50016V8.99992ZM9.16683 8.99992H9.50016V12.6666H9.16683V8.99992ZM12.5002 8.99992H12.8335V12.6666H12.5002V8.99992ZM1.8335 5.4756L8.00016 2.39227L14.1668 5.4756V7.33325H1.8335V5.4756ZM8.00016 6.33325C8.64451 6.33325 9.16683 5.81091 9.16683 5.16659C9.16683 4.52226 8.64451 3.99992 8.00016 3.99992C7.35581 3.99992 6.8335 4.52226 6.8335 5.16659C6.8335 5.81091 7.35581 6.33325 8.00016 6.33325Z" fill="black" stroke="black"/>
</svg>
