<svg width="19" height="18" viewBox="0 0 19 18" fill="none" xmlns="http://www.w3.org/2000/svg">
<path d="M1 0C0.44772 0 0 0.44772 0 1V17C0 17.5523 0.44772 18 1 18H11C11.5523 18 12 17.5523 12 17V12.2973L12.9995 16.9996C13.1143 17.5398 13.6454 17.8847 14.1856 17.7699L18.0982 16.9382C18.6384 16.8234 18.9832 16.2924 18.8684 15.7522L15.9576 2.0581C15.8428 1.51788 15.3118 1.17304 14.7716 1.28786L11.9927 1.87853C11.9328 1.38353 11.5112 1 11 1H7C7 0.44772 6.55228 0 6 0H1ZM7 3H10V11H7V3ZM7 16V13H10V16H7ZM5 2V12H2V2H5ZM5 14V16H2V14H5ZM14.3321 13.6496L16.2884 13.2338L16.7042 15.1898L14.7479 15.6057L14.3321 13.6496ZM13.9163 11.6933L12.253 3.86789L14.2092 3.45207L15.8726 11.2775L13.9163 11.6933Z" fill="white"/>
</svg>
