<svg width="24" height="25" viewBox="0 0 24 25" fill="none" xmlns="http://www.w3.org/2000/svg">
<path fill-rule="evenodd" clip-rule="evenodd" d="M5 1.31104C3.93913 1.31104 2.92172 1.73246 2.17157 2.48261C1.42143 3.23275 1 4.25017 1 5.31104V19.311C1 20.3719 1.42143 21.3893 2.17157 22.1395C2.92172 22.8896 3.93913 23.311 5 23.311H19C20.0609 23.311 21.0783 22.8896 21.8284 22.1395C22.5786 21.3893 23 20.3719 23 19.311V5.31104C23 4.25017 22.5786 3.23275 21.8284 2.48261C21.0783 1.73246 20.0609 1.31104 19 1.31104H5ZM8.91 7.40104C9.707 7.40104 10.46 7.59204 11.125 7.92904L11.072 7.97904C10.4752 8.53172 9.99927 9.20189 9.67402 9.9474C9.34876 10.6929 9.18124 11.4977 9.182 12.311C9.182 14.023 9.912 15.566 11.072 16.643L11.125 16.693C10.4632 17.0283 9.73394 17.2093 8.99213 17.2223C8.25032 17.2353 7.51521 17.08 6.84202 16.7681C6.16883 16.4562 5.57508 15.9958 5.10537 15.4215C4.63566 14.8472 4.3022 14.174 4.13006 13.4523C3.95791 12.7306 3.95155 11.9793 4.11145 11.2548C4.27136 10.5303 4.59336 9.85149 5.05328 9.26932C5.5132 8.68714 6.09908 8.21677 6.76689 7.89353C7.4347 7.57029 8.16708 7.40259 8.909 7.40304L8.91 7.40104ZM12 16.126L12.008 16.133L12.248 15.911C12.744 15.4519 13.1396 14.8949 13.4098 14.2754C13.68 13.6558 13.819 12.987 13.818 12.311C13.8187 11.6354 13.6795 10.967 13.4093 10.3478C13.1391 9.72863 12.7437 9.17203 12.248 8.71304L12.008 8.49104L12 8.49804L11.992 8.49104L11.752 8.71304C11.2565 9.17211 10.8612 9.72875 10.5912 10.348C10.3212 10.9672 10.1822 11.6355 10.183 12.311C10.183 13.733 10.788 15.014 11.753 15.911L11.993 16.131L12.001 16.125L12 16.126ZM15.09 17.221C14.294 17.221 13.54 17.031 12.875 16.693L12.928 16.644C13.5249 16.0912 14.0009 15.4209 14.3262 14.6752C14.6514 13.9295 14.8189 13.1246 14.818 12.311C14.818 10.599 14.088 9.05604 12.928 7.97904L12.875 7.92904C13.5368 7.59374 14.2661 7.4128 15.0079 7.39979C15.7497 7.38678 16.4848 7.54206 17.158 7.85394C17.8312 8.16583 18.4249 8.62622 18.8946 9.20052C19.3643 9.77483 19.6978 10.4481 19.8699 11.1698C20.0421 11.8915 20.0485 12.6428 19.8885 13.3673C19.7286 14.0917 19.4066 14.7706 18.9467 15.3528C18.4868 15.9349 17.9009 16.4053 17.2331 16.7285C16.5653 17.0518 15.8329 17.2195 15.091 17.219L15.09 17.221Z" fill="black"/>
</svg>
