<svg width="30" height="24" viewBox="0 0 30 24" fill="none" xmlns="http://www.w3.org/2000/svg">
<g clip-path="url(#clip0_101_7618)">
<path d="M10.1233 11.6544C10.1233 12.2535 9.64693 12.7102 9.04291 12.7102C8.59113 12.7102 8.2572 12.4549 8.2572 11.9736C8.2572 11.3745 8.72372 10.8933 9.32282 10.8933C9.77952 10.8933 10.1233 11.1732 10.1233 11.6544ZM4.92773 9.27273H4.69693C4.62327 9.27273 4.54961 9.32183 4.53979 9.40532L4.32863 10.7165L4.73131 10.7017C5.27149 10.7017 5.6889 10.6281 5.78711 10.0044C5.90006 9.34639 5.48265 9.27273 4.92773 9.27273ZM18.8742 9.27273H18.6532C18.5648 9.27273 18.5059 9.32183 18.496 9.40532L18.2898 10.7165L18.6826 10.7017C19.321 10.7017 19.763 10.5544 19.763 9.81782C19.7581 9.29728 19.2916 9.27273 18.8742 9.27273ZM29.2603 2.90353V20.1892C29.2603 21.4906 28.2045 22.5464 26.9032 22.5464H3.33175C2.03041 22.5464 0.974609 21.4906 0.974609 20.1892V2.90353C0.974609 1.60219 2.03041 0.546387 3.33175 0.546387H26.9032C28.2045 0.546387 29.2603 1.60219 29.2603 2.90353ZM7.27506 9.55264C7.27506 8.52139 6.47952 8.17764 5.57104 8.17764H3.60675C3.48398 8.17764 3.36122 8.27585 3.3514 8.40844L2.54604 13.4223C2.53131 13.5205 2.60497 13.6187 2.70318 13.6187H3.63622C3.76881 13.6187 3.89157 13.4763 3.90631 13.3388L4.12729 12.0325C4.1764 11.679 4.7755 11.8017 5.01122 11.8017C6.41568 11.8017 7.27506 10.9669 7.27506 9.55264ZM11.4099 9.98478H10.4768C10.2902 9.98478 10.2804 10.2549 10.2706 10.3875C9.98577 9.97005 9.57327 9.89639 9.10675 9.89639C7.90363 9.89639 6.98532 10.9522 6.98532 12.116C6.98532 13.0736 7.58443 13.6973 8.54202 13.6973C8.98398 13.6973 9.53399 13.4567 9.84336 13.1129C9.81881 13.1866 9.79425 13.3437 9.79425 13.4174C9.79425 13.5303 9.84336 13.6138 9.9514 13.6138H10.796C10.9286 13.6138 11.0416 13.4714 11.0661 13.3339L11.567 10.1763C11.5818 10.083 11.5081 9.98478 11.4099 9.98478ZM13.3987 14.7924L16.5268 10.245C16.5514 10.2205 16.5514 10.1959 16.5514 10.1616C16.5514 10.0781 16.4777 9.98969 16.3943 9.98969H15.4514C15.3679 9.98969 15.2795 10.0388 15.2304 10.1125L13.9291 12.0276L13.3889 10.1861C13.3496 10.0781 13.2416 9.98969 13.1188 9.98969H12.2005C12.117 9.98969 12.0434 10.0781 12.0434 10.1616C12.0434 10.2205 13.0009 12.9509 13.0844 13.2111C12.9518 13.3977 12.0777 14.6156 12.0777 14.7629C12.0777 14.8513 12.1514 14.92 12.2349 14.92H13.1777C13.2661 14.9151 13.3496 14.866 13.3987 14.7924ZM21.2215 9.55264C21.2215 8.52139 20.426 8.17764 19.5175 8.17764H17.5679C17.4353 8.17764 17.3126 8.27585 17.2978 8.40844L16.5023 13.4174C16.4925 13.5156 16.5661 13.6138 16.6594 13.6138H17.6661C17.7643 13.6138 17.838 13.5401 17.8626 13.4567L18.0835 12.0325C18.1326 11.679 18.7318 11.8017 18.9675 11.8017C20.3621 11.8017 21.2215 10.9669 21.2215 9.55264ZM25.3563 9.98478H24.4233C24.2367 9.98478 24.2268 10.2549 24.2121 10.3875C23.942 9.97005 23.5246 9.89639 23.0483 9.89639C21.8451 9.89639 20.9268 10.9522 20.9268 12.116C20.9268 13.0736 21.526 13.6973 22.4835 13.6973C22.9402 13.6973 23.4902 13.4567 23.7849 13.1129C23.7701 13.1866 23.7358 13.3437 23.7358 13.4174C23.7358 13.5303 23.7849 13.6138 23.8929 13.6138H24.7425C24.8751 13.6138 24.988 13.4714 25.0126 13.3339L25.5135 10.1763C25.5282 10.083 25.4545 9.98478 25.3563 9.98478ZM27.6889 8.34951C27.6889 8.2513 27.6152 8.17764 27.5318 8.17764H26.6233C26.5496 8.17764 26.476 8.23657 26.4661 8.31023L25.6706 13.4174L25.6559 13.4419C25.6559 13.5303 25.7295 13.6138 25.8277 13.6138H26.638C26.7608 13.6138 26.8835 13.4714 26.8934 13.3339L27.6889 8.36424V8.34951ZM23.2693 10.8933C22.6701 10.8933 22.2036 11.3696 22.2036 11.9736C22.2036 12.45 22.5474 12.7102 22.9992 12.7102C23.5885 12.7102 24.0648 12.2584 24.0648 11.6544C24.0697 11.1732 23.726 10.8933 23.2693 10.8933Z" fill="black"/>
</g>
<defs>
<clipPath id="clip0_101_7618">
<rect width="30" height="23" fill="white" transform="translate(0 0.311035)"/>
</clipPath>
</defs>
</svg>
