<svg width="24" height="25" viewBox="0 0 24 25" fill="none" xmlns="http://www.w3.org/2000/svg">
<path fill-rule="evenodd" clip-rule="evenodd" d="M5 1.31104C3.93913 1.31104 2.92172 1.73246 2.17157 2.48261C1.42143 3.23275 1 4.25017 1 5.31104V19.311C1 20.3719 1.42143 21.3893 2.17157 22.1395C2.92172 22.8896 3.93913 23.311 5 23.311H19C20.0609 23.311 21.0783 22.8896 21.8284 22.1395C22.5786 21.3893 23 20.3719 23 19.311V5.31104C23 4.25017 22.5786 3.23275 21.8284 2.48261C21.0783 1.73246 20.0609 1.31104 19 1.31104H5ZM5.962 9.76604H4L5.455 10.493L6.545 14.857H8L9.818 9.76604H8.364L7.273 13.038L6.672 10.335C6.63625 10.1734 6.54639 10.0288 6.41728 9.92512C6.28818 9.82148 6.12756 9.766 5.962 9.76604ZM11.636 9.76604H10.546L9.818 14.856H10.909L11.636 9.76604ZM15.605 9.97704C15.362 9.85704 14.766 9.76604 14.184 9.76604C13.456 9.76604 12.309 10.208 12.309 11.3C12.309 12.164 12.917 12.48 13.421 12.744C13.78 12.931 14.086 13.091 14.086 13.401C14.086 13.608 13.732 13.85 13.253 13.85C12.773 13.85 12.174 13.683 11.957 13.608L11.787 14.645C12.029 14.766 12.74 14.857 13.322 14.857C14.05 14.857 15.434 14.397 15.434 13.306C15.434 12.364 14.704 11.976 14.169 11.693C13.862 11.53 13.619 11.401 13.619 11.221C13.619 11.091 13.756 10.789 14.235 10.789C14.714 10.789 15.213 10.894 15.434 11.014L15.605 9.97704ZM16.727 14.857H15.273L17.454 9.76604H18.909L20 14.856H18.804L18.642 14.129H16.976L16.727 14.857ZM17.332 13.037H18.408L18.012 11.199L17.332 13.037Z" fill="black"/>
</svg>
