<svg width="244" height="33" viewBox="0 0 244 33" fill="none" xmlns="http://www.w3.org/2000/svg">
<path d="M238.365 0C235.205 0 232.73 2.52796 232.73 5.75925C232.73 8.9825 235.205 11.5064 238.365 11.5064C241.526 11.5064 244 8.9825 244 5.75925C244 2.52796 241.526 0 238.365 0ZM238.365 10.5379C235.737 10.5379 233.676 8.43592 233.676 5.75523C233.676 3.07455 235.737 0.972602 238.365 0.972602C240.994 0.972602 243.055 3.07455 243.055 5.75523C243.055 8.43994 240.994 10.5379 238.365 10.5379Z" fill="#59BA56"/>
<path d="M240.752 4.45385C240.752 3.22001 239.889 2.39209 238.601 2.39209H236.213V8.87477H237.159V6.49149H238.424L240.09 8.87075H241.249L239.487 6.32269C240.161 6.08155 240.752 5.42645 240.752 4.45385ZM237.159 3.3245H238.451C239.294 3.3245 239.795 3.73846 239.795 4.43375C239.795 5.15717 239.322 5.55104 238.463 5.55104H237.163V3.3245H237.159Z" fill="#59BA56"/>
<path d="M50.1756 20.2737C50.1756 22.1948 49.5452 23.7421 48.2487 25.0081C46.9601 26.266 45.4273 26.8528 43.4294 26.8528C41.4355 26.8528 39.8474 26.25 38.5746 25.0081C37.3018 23.7662 36.6832 22.2189 36.6832 20.2737V2.49756H30.6777V20.2737C30.6777 23.7461 31.9151 26.7121 34.3503 29.0914C36.7659 31.4466 39.8159 32.6402 43.4255 32.6402C47.035 32.6402 50.085 31.4466 52.5006 29.0914C54.9398 26.7121 56.1732 23.7461 56.1732 20.2777V2.49756H50.1678V20.2737H50.1756Z" fill="#59BA56"/>
<path d="M161.815 1.38965C157.492 1.38965 153.823 2.89276 150.915 5.8588C148.007 8.82483 146.533 12.5665 146.533 16.9754C146.533 21.3441 148.007 25.0818 150.915 28.092C153.823 31.0581 157.492 32.5612 161.815 32.5612C166.114 32.5612 169.771 31.0581 172.679 28.092C175.611 25.1019 177.1 21.3602 177.1 16.9754C177.1 12.5464 175.611 8.80474 172.679 5.8588C169.771 2.89276 166.114 1.38965 161.815 1.38965ZM171.032 16.9754C171.032 19.7124 170.169 21.9389 168.395 23.7796C166.626 25.5801 164.475 26.4563 161.811 26.4563C159.147 26.4563 156.991 25.5841 155.234 23.7876C153.457 21.9429 152.594 19.7164 152.594 16.9794C152.594 14.2344 153.457 12.02 155.234 10.2074C156.988 8.38676 159.139 7.50258 161.811 7.50258C164.482 7.50258 166.638 8.39078 168.403 10.2194C170.173 12.02 171.032 14.2304 171.032 16.9754Z" fill="#59BA56"/>
<path d="M200.24 17.7853C201.595 16.0812 202.281 14.0797 202.281 11.8331C202.281 9.14036 201.351 6.86961 199.515 5.09321C197.706 3.29269 195.436 2.38037 192.768 2.38037H179.879V31.5785H185.62V21.2899H191.724L198.088 31.5745H204.854L197.694 19.9957C198.668 19.429 199.523 18.6855 200.24 17.7853ZM196.504 11.8331C196.504 12.9102 196.169 13.7421 195.452 14.4495C194.735 15.1568 193.856 15.5025 192.768 15.5025H185.624V8.16374H192.768C193.872 8.16374 194.715 8.50134 195.432 9.22878L195.48 9.27299C196.177 9.94818 196.504 10.76 196.504 11.8331Z" fill="#59BA56"/>
<path d="M216.137 16.7484L229.649 2.38037H221.803L211.432 13.4045V2.38037H205.69V31.5745H211.432V20.0801L222.513 31.5745H230.429L216.137 16.7484Z" fill="#59BA56"/>
<path d="M147.874 2.38037H141.797L135.831 20.1203L129.98 2.38037H125.826L119.967 20.0842L113.969 2.38037H107.928L117.949 31.5745H122.083L127.887 14.0355L133.723 31.5745H137.853L147.767 2.69386L147.874 2.38037Z" fill="#59BA56"/>
<path d="M86.4248 31.4119H105.812V25.6286H92.1662V19.5317H105.812V13.7443H92.1662V8.00114H105.812V2.21777H86.4248V31.4119Z" fill="#59BA56"/>
<path d="M15.2815 7.49856C18.56 7.49856 21.3933 9.02177 23.0562 11.6783L23.2178 11.9396L27.5485 7.52267L27.4224 7.34985C24.6206 3.56394 20.1954 1.38965 15.2815 1.38965C10.9548 1.38965 7.29004 2.89276 4.38191 5.8588C1.47377 8.82483 0 12.5665 0 16.9754C0 21.3441 1.47377 25.0818 4.38191 28.092C7.29004 31.0581 10.9587 32.5612 15.2815 32.5612C20.1954 32.5612 24.6206 30.3869 27.4224 26.601L27.5485 26.4281L23.2178 22.0112L23.0562 22.2725C21.3933 24.929 18.56 26.4523 15.2815 26.4523C12.6137 26.4523 10.4622 25.5801 8.7047 23.7836C6.92751 21.9389 6.06453 19.7124 6.06453 16.9754C6.06453 14.2304 6.92751 12.0159 8.7047 10.2034C10.4583 8.38274 12.6098 7.49856 15.2815 7.49856Z" fill="#59BA56"/>
<path d="M80.7382 16.4556C80.7855 16.4556 82.8622 14.205 82.8622 11.4479C82.8622 8.94808 81.9519 6.72557 80.2299 5.03356C78.5197 3.34959 76.4115 2.49756 73.9644 2.49756H59.9399V31.4144H74.0432C76.6164 31.4144 78.7877 30.5624 80.49 28.8864C82.2711 27.1783 83.1735 25.0322 83.1735 22.5042C83.1814 20.4184 82.1529 18.1315 80.7382 16.4556ZM65.6853 8.10811H73.9683C74.8037 8.10811 75.4539 8.36934 76.0174 8.93603C76.5809 9.50271 76.8213 10.1015 76.8213 10.9375C76.8213 11.7735 76.6006 12.3361 76.0411 12.9189L76.0174 12.939C75.4579 13.5056 74.8037 13.7669 73.9683 13.7669H65.6853V8.10811ZM76.4903 24.8594C75.8441 25.4904 75.0441 25.7958 74.0472 25.7958H65.6853V19.3011H74.0472C75.0441 19.3011 75.8441 19.6065 76.4903 20.2375C77.1129 20.8444 77.4045 21.5799 77.4045 22.5484C77.4045 23.517 77.1129 24.2525 76.4903 24.8594Z" fill="#59BA56"/>
</svg>
